<svg width="512" height="512" viewBox="0 0 512 512" fill="none" xmlns="http://www.w3.org/2000/svg">
<g clip-path="url(#clip0_164_32)">
<path d="M298.667 277.333H341.333V320H298.667V277.333ZM384 320H426.667V277.333H384V320ZM298.667 405.333H341.333V362.667H298.667V405.333ZM384 405.333H426.667V362.667H384V405.333ZM298.667 149.333H341.333V106.667H298.667V149.333ZM384 149.333H426.667V106.667H384V149.333ZM298.667 234.667H341.333V192H298.667V234.667ZM384 234.667H426.667V192H384V234.667ZM512 64V512H0V188.352C0 171.264 6.656 155.179 18.752 143.083L76.5013 85.3333C104 57.8133 152 57.8133 179.499 85.3333L213.333 119.168V64C213.333 28.7147 242.048 0 277.333 0H448C483.285 0 512 28.7147 512 64ZM213.333 188.352C213.333 182.656 211.115 177.28 207.083 173.248L149.333 115.499C138.112 104.277 117.888 104.277 106.667 115.499L48.9173 173.248C44.8853 177.28 42.6667 182.635 42.6667 188.352V469.333H213.333V188.352ZM469.333 64C469.333 52.2453 459.755 42.6667 448 42.6667H277.333C265.579 42.6667 256 52.2453 256 64V469.333H469.333V64ZM106.667 320H149.333V277.333H106.667V320ZM106.667 234.667H149.333V192H106.667V234.667ZM106.667 405.333H149.333V362.667H106.667V405.333Z" fill="#56B99F"/>
</g>
<defs>
<clipPath id="clip0_164_32">
<rect width="512" height="512" fill="white"/>
</clipPath>
</defs>
</svg>
