<svg width="480" height="446" viewBox="0 0 480 446" fill="none" xmlns="http://www.w3.org/2000/svg">
<path d="M153.76 252.012C142.655 254.138 129.454 257.627 115.101 263.344C95.9642 271.035 80.8955 280.359 69.8952 288.373C69.8952 288.373 82.1178 242.228 139.634 225.213C161.739 217.879 205.479 223.188 226.292 248.813L477.781 118.459C477.781 118.459 474.289 81.2812 432.662 69.0984C391.018 56.9155 323.008 35.2892 323.008 35.2892C323.008 35.2892 277.208 -22.2051 211.974 9.5793C155.768 37.9776 164.079 95.4548 164.079 95.4548L19.0316 236.119C19.0316 236.119 1.01202 260.468 0.313588 282.128C-0.105473 294.771 -0.0181769 334.909 0.0865883 366.081L198.058 263.446C179.392 249.374 156.99 251.62 153.742 251.994L153.76 252.012ZM252.676 25.8968C286.812 25.8968 314.435 52.8489 314.435 86.0795C314.435 119.31 286.794 146.262 252.676 146.262C218.557 146.262 190.916 119.327 190.916 86.0795C190.916 52.8319 218.574 25.8968 252.676 25.8968ZM238.899 415.34H122.47C135.426 411.444 160.063 402.153 182.745 380.068C200.537 362.78 209.879 344.693 214.698 333.242C221.63 317.265 221.49 299.909 215.152 285.259L0.261208 394.786C0.31359 401.66 0.348517 405.846 0.348517 405.846C0.348517 405.846 -1.04837 435.605 38.5005 445.066C62.1076 446.427 267.517 445.066 267.517 445.066C267.517 445.066 260.952 415.323 238.899 415.323V415.34Z" fill="#25507F"/>
<path d="M242.861 272.141C242.861 272.141 261.248 310.016 241.133 355.991C241.499 355.124 313.648 445.695 313.648 445.695H394.142C394.142 445.695 389.987 417.195 369.156 415.851C347.644 415.851 335.16 414.507 335.16 414.507L279.634 292.78L322.658 338.091L462.659 183.9C462.659 183.9 481.22 162.767 479.928 150.346L242.844 272.158L242.861 272.141Z" fill="#56B99F"/>
<path d="M358.68 341.801L372.212 396.573C372.212 396.573 409.945 396.164 414.624 445.695H472.664C472.664 445.695 472.542 415.681 444.552 414.83C427.685 414.319 415.672 414.83 415.672 414.83V279.831L358.68 341.801Z" fill="#56B99F"/>
<path d="M335.859 28.262L416.354 53.2913C416.354 53.2913 413.752 24.893 387.212 17.1171C352.692 6.80587 335.859 28.279 335.859 28.279V28.262Z" fill="#25507F"/>
<path d="M252.693 115.839C269.434 115.839 283.005 102.614 283.005 86.3008C283.005 69.9872 269.434 56.7624 252.693 56.7624C235.952 56.7624 222.381 69.9872 222.381 86.3008C222.381 102.614 235.952 115.839 252.693 115.839Z" fill="#57BA9E"/>
</svg>
